<svg xmlns="http://www.w3.org/2000/svg" width="512" height="512" fill="none" aria-label="code-preview.nvim logo" role="img" viewBox="0 0 512 512"><defs><linearGradient id="tile" x1="0" x2="0" y1="0" y2="1"><stop offset="0" stop-color="#18212F"/><stop offset="1" stop-color="#0E141F"/></linearGradient><linearGradient id="seam" x1="0" x2="0" y1="0" y2="1"><stop offset="0" stop-color="#F0626B"/><stop offset=".5" stop-color="#F0626B"/><stop offset=".5" stop-color="#3FB950"/><stop offset="1" stop-color="#3FB950"/></linearGradient></defs><rect width="400" height="400" x="56" y="56" fill="url(#tile)" stroke="#27344A" stroke-width="3" rx="104"/><rect width="399" height="399" x="56.5" y="56.5" fill="none" stroke="#000" stroke-opacity=".25" stroke-width="1" rx="103.5"/><g transform="translate(268 256) scale(1.3) translate(-256 -256)"><rect width="150" height="30" x="150" y="168" fill="#28344A" rx="9"/><rect width="6" height="92" x="120" y="210" fill="url(#seam)" opacity=".95" rx="3"/><text x="138" y="243" fill="#F0626B" font-family="ui-monospace, SFMono-Regular, Menlo, Consolas, monospace" font-size="34" font-weight="700" text-anchor="middle">−</text><rect width="232" height="34" x="150" y="214" fill="#F0626B" fill-opacity=".14" rx="9"/><rect width="232" height="34" x="150" y="214" fill="none" stroke="#F0626B" stroke-opacity=".5" stroke-width="2" rx="9"/><rect width="86" height="12" x="168" y="225" fill="#F0626B" fill-opacity=".85" rx="6"/><rect width="98" height="12" x="266" y="225" fill="#F0626B" fill-opacity=".45" rx="6"/><text x="138" y="293" fill="#3FB950" font-family="ui-monospace, SFMono-Regular, Menlo, Consolas, monospace" font-size="34" font-weight="700" text-anchor="middle">+</text><rect width="232" height="34" x="150" y="264" fill="#3FB950" fill-opacity=".16" rx="9"/><rect width="232" height="34" x="150" y="264" fill="none" stroke="#3FB950" stroke-opacity=".55" stroke-width="2" rx="9"/><rect width="120" height="12" x="168" y="275" fill="#3FB950" fill-opacity=".9" rx="6"/><rect width="64" height="12" x="300" y="275" fill="#3FB950" fill-opacity=".5" rx="6"/><rect width="190" height="30" x="150" y="314" fill="#28344A" rx="9"/></g></svg>